<svg viewBox="0 0 121.17168000000001 97.33909090909091" xmlns="http://www.w3.org/2000/svg" data-name="Layer 2" id="Layer_2" style="max-height: 500px" width="121.17168000000001" height="97.33909090909091">
  <defs>
    <style>
      .cls-1 {
        fill: #fff;
      }

      .cls-2 {
        fill: #fc0;
      }
    </style>
  </defs>
  <g data-name="Layer 1" id="Layer_1-2">
    <g>
      <path d="M259.78,22.05c5.08,0,10.17-.18,15.24,.04,8.98,.4,16.04,4.21,20.06,12.55,5.06,10.51,.99,27.8-14.63,31.57-1.95,.47-3.95,.63-5.95,.63-9,.02-17.99,.01-26.99,0-2.03,0-2.04-.02-2.05-2.03-.01-3.83,0-7.66,0-11.49,0-1.97-.18-1.91,1.87-1.91,8.41,0,16.83,0,25.24,0,.67,0,1.33,0,2,0,5.56-.03,7.8-4.39,6.86-9.01-.56-2.75-3.15-4.71-6.22-4.88-1.33-.07-2.66-.02-4-.02-8.58,0-17.16-.02-25.74,.01-3.59,.01-6.06,1.89-6.79,5.09-.16,.72-.17,1.49-.17,2.23-.01,7.41-.03,14.83,0,22.24,.02,4.44,2.51,6.97,6.98,6.99,9,.05,17.99,.01,26.99,.02,2.19,0,2.21,.02,2.21,2.12,.01,4-.03,8,.03,11.99,.02,1.1-.36,1.41-1.43,1.4-9.75-.04-19.51,.29-29.23-.12-12.87-.55-21.07-10.32-21.02-21.63,.04-8-.19-16,.05-23.99,.37-12.22,8.31-19.19,16.01-21.07,2.03-.5,4.09-.75,6.18-.74,4.83,.01,9.66,0,14.49,0Z" class="cls-1"/>
      <path d="M335.51,89.59c-7.33,0-14.67,0-22,0-1.87,0-1.89-.03-1.89-1.91-.01-4.08,0-8.17,0-12.25,0-2.06-.13-2,2.08-2,13.17,0,26.33,0,39.5,0,1.33,0,2.66,.11,3.99-.16,3.56-.71,5.18-2.94,4.96-6.89-.2-3.66-2.17-5.8-5.72-5.96-2.74-.12-5.5-.05-8.25-.05-5.83,0-11.67,0-17.5,0-5.27,0-10.09-1.36-13.96-5.08-5.74-5.52-7.06-12.39-5.04-19.77,1.98-7.25,7.25-11.33,14.49-12.94,1.62-.36,3.28-.53,4.96-.53,12.33,.03,24.67,.01,37,.01,.25,0,.5,.03,.75,0,1.17-.15,1.62,.31,1.59,1.54-.07,3.58-.02,7.17-.02,10.75,0,.92-.04,1.84,0,2.75,.05,1-.43,1.33-1.35,1.28-.58-.03-1.17,0-1.75,0-11.67,0-23.33,0-35,0-.83,0-1.67-.03-2.5,.05-2.06,.19-2.87,1.14-2.74,3.08,.12,1.8,.92,2.55,2.96,2.55,8.58,.02,17.17,0,25.75,.02,3.45,0,6.81,.53,9.95,2.03,6.92,3.3,10.73,8.96,12.25,16.33,.84,4.09,.6,8.14-.65,12.09-2.78,8.8-10.97,14.85-20.6,15.04-7.08,.14-14.17,.03-21.25,.03h0Z" class="cls-1"/>
      <path d="M677.82,41.41c5.52-5.97,11.04-11.87,16.46-17.86,.98-1.09,1.96-1.55,3.42-1.54,6.08,.07,12.17,.02,18.25,.04,.47,0,.98-.15,1.74,.34-9.5,10.59-19.18,20.92-28.79,31.56,10.84,11.77,21.6,23.46,32.36,35.14-.22,.74-.82,.47-1.25,.47-6.33,.02-12.67-.04-19,.05-1.34,.02-2.14-.52-2.96-1.43-6.4-7.01-12.83-14-19.25-21-.28-.31-.53-.64-.78-.94-.98,.31-1.4,1.06-1.94,1.64-6.2,6.74-12.38,13.51-18.58,20.25-.65,.71-1.21,1.48-2.43,1.47-6.91-.06-13.81-.03-21.31-.03,11.07-12.09,21.82-23.84,32.74-35.77-9.58-10.47-19.1-20.88-28.6-31.27,.41-.82,1.08-.48,1.59-.48,6.08-.03,12.17,.03,18.25-.05,1.49-.02,2.44,.51,3.4,1.57,5.08,5.62,10.22,11.19,15.35,16.78,.33,.37,.61,.8,1.35,1.05Z" class="cls-1"/>
      <path d="M38.55,58.76c0-9.24,.16-18.49-.06-27.73-.13-5.77,4.41-9.09,9.05-9.03,12.07,.16,24.16-.18,36.22,.13,11.11,.28,20.09,4.9,25.93,14.69,2.62,4.39,3.69,9.28,3.73,14.34,.09,12.24,.02,24.48,.07,36.73,0,1.26-.28,1.76-1.64,1.74-4.33-.07-8.66-.01-12.99-.03-1.69,0-1.72-.04-1.72-1.84,0-11.74-.01-23.48,0-35.23,0-2.02-.23-3.97-1.01-5.86-2.04-4.94-5.82-7.58-11.02-8.17-2.22-.25-4.49-.13-6.74-.13-7-.01-13.99,0-20.99,0-2.77,0-2.59-.27-2.59,2.51,0,15.16,0,30.31,0,45.47q0,3.25-3.3,3.25c-3.41,0-6.83,.02-10.24,0-3.14-.02-2.69,.32-2.7-2.59-.02-9.41,0-18.82,0-28.23Z" class="cls-1"/>
      <path d="M149.13,72.91c4.19-.09,7.94-1.01,11.52-2.7,6.84-3.24,12.38-8.09,17.18-13.84,8.04-9.64,13.98-20.44,17.78-32.41,.6-1.88,.6-1.9,2.51-1.9,4.5-.01,9,0,13.5,0,.48,0,.99-.13,1.42,.19,.19,.43,.06,.84-.07,1.23-4.98,14.77-11.49,28.73-21.4,40.93-8.72,10.73-19.36,18.67-32.69,22.8-5.7,1.76-11.54,2.52-17.48,2.52-5.34,0-8.57-3.23-8.58-8.58-.03-19-.02-38,0-57,0-2.07,.03-2.1,1.99-2.1,4.17-.01,8.33-.02,12.5,0,1.71,0,1.74,.04,1.75,1.82,.01,9.58,0,19.17,0,28.75,0,6.25,0,12.5,0,18.75,0,.41,.04,.81,.08,1.53Z" class="cls-1"/>
      <path d="M410.52,64.01c0-7.91,0-15.83,0-23.74,0-1.88-.03-1.91-1.9-1.91-5.75-.01-11.49,0-17.24-.01-1.9,0-1.93-.03-1.94-1.9-.02-4.25,.03-8.5-.03-12.74-.02-1.28,.35-1.71,1.69-1.69,5.75,.07,11.49,.03,17.24,.03,2.38,0,2.19,.12,2.19-2.12,0-6,0-11.99,0-17.99,0-1.9,.03-1.92,1.89-1.92,4.16-.01,8.33-.01,12.49,0,2.04,0,2.06,.02,2.06,2.01,.01,5.58,0,11.16,0,16.74,0,.5,0,1,0,1.5,.04,1.75,.04,1.78,1.75,1.78,7.5,.01,14.99,0,22.49,0,.83,0,1.67,.05,2.5-.01,1.11-.08,1.68,.19,1.66,1.49-.06,4.41-.07,8.83,0,13.24,.02,1.43-.63,1.61-1.82,1.61-7.66-.04-15.33-.02-22.99-.02-.67,0-1.34,.08-2-.01-1.39-.19-1.62,.49-1.62,1.71,.04,8.58,.02,17.16,.02,25.74,0,7.33,0,14.66,0,21.99,0,1.76-.03,1.8-1.75,1.8-4.33,.02-8.66,.02-12.99,0-1.67,0-1.7-.04-1.7-1.83-.01-7.91,0-15.83,0-23.74Z" class="cls-1"/>
      <path d="M620.24,61.38c0,11.33,0,22.66,0,33.99,0,3.44-.34,6.81-1.67,10.03-3.07,7.43-8.88,11.39-16.5,13.05-1.54,.34-3.11,.53-4.71,.53-9-.03-17.99,0-26.99-.01-2.19,0-2.21-.02-2.21-2.13-.01-4.08-.02-8.16,0-12.25,0-1.89,.03-1.92,1.93-1.93,8.58-.01,17.16,0,25.74,0,.83,0,1.67,.01,2.5-.04,3.41-.23,5.33-2.09,5.64-5.49,.09-.99,.05-2,.05-3,0-22.91,0-45.81,0-68.72,0-.5,0-1,0-1.5,.04-1.82,.04-1.84,1.97-1.85,4.08-.01,8.16-.01,12.25,0,1.96,0,1.99,.03,1.99,2.09,0,11.25,0,22.49,0,33.74,0,1.17,0,2.33,0,3.5Z" class="cls-1"/>
      <path d="M470.43,64.96c0-6.58,0-13.16,0-19.73,0-2.51,.14-4.99,.88-7.41,2.66-8.69,8.8-13.41,17.43-15.27,1.79-.39,3.61-.51,5.46-.51,11.07,.03,22.15,.01,33.22,.01,.5,0,1,.01,1.5,0,.75-.01,1.01,.38,1.01,1.08,0,4.66-.01,9.33,0,13.99,0,.81-.27,1.26-1.14,1.23-.58-.02-1.17,0-1.75,0-10.91,0-21.82,0-32.72,0-5.93,0-7.7,1.82-7.71,7.8,0,13.57,0,27.14,0,40.72,0,.5-.03,1,0,1.5,.05,.78-.13,1.23-1.07,1.23-4.66-.03-9.33-.03-13.99,0-.87,0-1.21-.31-1.14-1.16,.04-.5,0-1,0-1.5,0-7.33,0-14.65,0-21.98Z" class="cls-1"/>
      <path d="M545.43,46.74c0-7.58,0-15.15,0-22.73,0-1.92,.03-1.95,1.86-1.95,4.16-.02,8.33-.02,12.49,0,1.8,0,1.82,.03,1.83,1.97,.01,6.83,0,13.66,0,20.48,0,7.24,0,14.49,0,21.73,0,1,.05,1.98,.33,2.96,.58,2.02,1.84,3.3,3.86,3.85,1.14,.31,2.29,.38,3.46,.38,8.74-.01,17.49-.01,26.23,0,2,0,2.02,.02,2.03,2.02,.01,4.16-.05,8.33,.03,12.49,.03,1.34-.41,1.68-1.69,1.67-9.58-.05-19.15,.08-28.73-.07-9.82-.15-18.19-6.48-20.82-15.41-.71-2.42-.9-4.9-.89-7.41,.01-6.66,0-13.32,0-19.98Z" class="cls-1"/>
      <path d="M16.19,44.82c0,13.91,0,27.82,0,41.73,0,.67-.02,1.33,0,2,.02,.74-.33,1.03-1.05,1.03-4.75-.01-9.5,0-14.24-.01-.62,0-.9-.32-.89-.93,0-.58,0-1.17,0-1.75C0,58.91,0,30.92,0,2.93,0,2.76,0,2.6,0,2.43,.02-.27-.16,.01,2.42,0,6.34,0,10.25,0,14.17,.01c1.99,0,2.02,.03,2.02,2.08,0,14.24,0,28.49,0,42.73Z" class="cls-2"/>
    </g>
  </g>
</svg>