<svg width="34" height="35" viewBox="0 0 34 35" fill="none" xmlns="http://www.w3.org/2000/svg">
<g filter="url(#filter0_d_1138_3574)">
<path d="M10.1789 8.26023C7.27771 8.96084 5.82711 9.31052 5.48156 10.4941C5.13719 11.6765 6.12549 12.9104 8.10325 15.3771L8.61509 16.0148C9.17646 16.7154 9.45832 17.0663 9.58451 17.499C9.7107 17.933 9.66824 18.4009 9.58333 19.3355L9.5055 20.187C9.20712 23.4788 9.05734 25.124 9.96072 25.8548C10.8641 26.5856 12.2227 25.919 14.9376 24.5857L15.6416 24.241C16.4129 23.8612 16.7986 23.6725 17.2078 23.6725C17.617 23.6725 18.0027 23.8612 18.7752 24.241L19.4769 24.5857C22.1929 25.919 23.5515 26.5856 24.4537 25.8561C25.3583 25.124 25.2085 23.4788 24.9101 20.187M26.3124 15.3771C28.2901 12.9117 29.2784 11.6778 28.9341 10.4941C28.5897 9.31052 27.1379 8.95959 24.2367 8.26023L23.4867 8.0791C22.6623 7.88036 22.2507 7.78099 21.9193 7.51307C21.5879 7.24516 21.3768 6.83887 20.9522 6.02631L20.5654 5.28671C19.0712 2.4289 18.3247 1 17.2078 1C16.091 1 15.3444 2.4289 13.8502 5.28671" fill="#F2C600"/>
<path d="M10.1789 8.26023C7.27771 8.96084 5.82711 9.31052 5.48156 10.4941C5.13719 11.6765 6.12549 12.9104 8.10325 15.3771L8.61509 16.0148C9.17646 16.7154 9.45832 17.0663 9.58451 17.499C9.7107 17.933 9.66824 18.4009 9.58333 19.3355L9.50549 20.187C9.20712 23.4788 9.05734 25.124 9.96072 25.8548C10.8641 26.5856 12.2227 25.919 14.9376 24.5857L15.6416 24.241C16.4129 23.8612 16.7986 23.6725 17.2078 23.6725C17.617 23.6725 18.0027 23.8612 18.7752 24.241L19.4769 24.5857C22.1929 25.919 23.5515 26.5856 24.4537 25.8561C25.3583 25.124 25.2085 23.4788 24.9101 20.187M26.3124 15.3771C28.2901 12.9117 29.2784 11.6778 28.9341 10.4941C28.5897 9.31052 27.1379 8.95959 24.2367 8.26023L23.4867 8.0791C22.6623 7.88036 22.2507 7.78099 21.9193 7.51307C21.5879 7.24516 21.3768 6.83887 20.9522 6.02631L20.5654 5.28671C19.0712 2.4289 18.3247 1 17.2078 1C16.091 1 15.3444 2.4289 13.8502 5.28671" stroke="#EACF24" stroke-width="1.5" stroke-linecap="round"/>
</g>
<defs>
<filter id="filter0_d_1138_3574" x="0.664062" y="0.25" width="33.0859" height="34.6562" filterUnits="userSpaceOnUse" color-interpolation-filters="sRGB">
<feFlood flood-opacity="0" result="BackgroundImageFix"/>
<feColorMatrix in="SourceAlpha" type="matrix" values="0 0 0 0 0 0 0 0 0 0 0 0 0 0 0 0 0 0 127 0" result="hardAlpha"/>
<feOffset dy="4"/>
<feGaussianBlur stdDeviation="2"/>
<feComposite in2="hardAlpha" operator="out"/>
<feColorMatrix type="matrix" values="0 0 0 0 0 0 0 0 0 0 0 0 0 0 0 0 0 0 0.25 0"/>
<feBlend mode="normal" in2="BackgroundImageFix" result="effect1_dropShadow_1138_3574"/>
<feBlend mode="normal" in="SourceGraphic" in2="effect1_dropShadow_1138_3574" result="shape"/>
</filter>
</defs>
</svg>
