<svg width="37" height="34" viewBox="0 0 37 34" fill="none" xmlns="http://www.w3.org/2000/svg">
<path d="M16.7822 27.9921H3.41789C2.47775 27.9921 1.69226 27.6773 1.06141 27.0479C0.431929 26.4156 0.117188 25.6295 0.117188 24.6893V4.01652C0.117188 3.07638 0.432611 2.29157 1.06346 1.66209C1.69294 1.03124 2.47775 0.71582 3.41789 0.71582H33.6045C34.5446 0.71582 35.3294 1.03124 35.9589 1.66209C36.5898 2.29157 36.9052 3.07638 36.9052 4.01652V24.6914C36.9052 25.6315 36.5898 26.417 35.9589 27.0479C35.3294 27.6773 34.5446 27.9921 33.6045 27.9921H20.2402L23.8638 31.6157C23.932 31.6838 24.0083 31.8698 24.0927 32.1737V32.6294C24.0927 32.8501 24.0164 33.0361 23.8638 33.1874C23.7126 33.34 23.5266 33.4163 23.3059 33.4163H13.4876C13.3363 33.4163 13.2055 33.3618 13.0952 33.2528C12.9862 33.141 12.9317 33.0096 12.9317 32.8583V32.0715C12.9317 32.0033 12.9862 31.8725 13.0952 31.6791L16.7822 27.9921ZM2.16097 22.8826H34.8614V3.41745C34.8614 3.10271 34.7306 2.81386 34.469 2.55089C34.206 2.28929 33.9179 2.15849 33.6045 2.15849H3.41789C3.10451 2.15849 2.81634 2.28929 2.55337 2.55089C2.29177 2.81386 2.16097 3.10203 2.16097 3.41541V22.8826Z" fill="black"/>
</svg>
