<svg width="22" height="36" viewBox="0 0 22 36" fill="none" xmlns="http://www.w3.org/2000/svg">
<path d="M8.63392 1.71582H5.20758C4.29886 1.71582 3.42736 2.08495 2.7848 2.74201C2.14224 3.39906 1.78125 4.29022 1.78125 5.21944V30.9126C1.78125 31.8419 2.14224 32.733 2.7848 33.3901C3.42736 34.0471 4.29886 34.4163 5.20758 34.4163H16.6287C17.5374 34.4163 18.4089 34.0471 19.0515 33.3901C19.694 32.733 20.055 31.8419 20.055 30.9126V5.21944C20.055 4.29022 19.694 3.39906 19.0515 2.74201C18.4089 2.08495 17.5374 1.71582 16.6287 1.71582H13.2024M8.63392 1.71582V4.05157H13.2024V1.71582M8.63392 1.71582H13.2024M8.63392 30.9126H13.2024" stroke="black" stroke-width="1.92356" stroke-linecap="round" stroke-linejoin="round"/>
</svg>
